SplineFontDB: 3.2
FontName: Feinte
FullName: Feinte
FamilyName: Feinte
Weight: Regular
Copyright: Copyright (c) 2021, Ayzeg
UComments: "2021-10-27: Created with FontForge (http://fontforge.org)"
Version: 001.000
ItalicAngle: 0
UnderlinePosition: -85
UnderlineWidth: 39
Ascent: 710
Descent: 260
InvalidEm: 0
LayerCount: 2
Layer: 0 0 "Arri+AOgA-re" 1
Layer: 1 0 "Avant" 0
XUID: [1021 65 1876167903 5761]
FSType: 0
OS2Version: 0
OS2_WeightWidthSlopeOnly: 0
OS2_UseTypoMetrics: 1
CreationTime: 1635341670
ModificationTime: 1635423996
PfmFamily: 17
TTFWeight: 400
TTFWidth: 5
LineGap: 83
VLineGap: 0
OS2TypoAscent: 0
OS2TypoAOffset: 1
OS2TypoDescent: 0
OS2TypoDOffset: 1
OS2TypoLinegap: 83
OS2WinAscent: 0
OS2WinAOffset: 1
OS2WinDescent: 0
OS2WinDOffset: 1
HheadAscent: 0
HheadAOffset: 1
HheadDescent: 0
HheadDOffset: 1
OS2Vendor: 'PfEd'
MarkAttachClasses: 1
DEI: 91125
Encoding: ISO8859-1
UnicodeInterp: none
NameList: AGL For New Fonts
DisplaySize: -48
AntiAlias: 1
FitToEm: 0
WinInfo: 0 38 13
BeginPrivate: 0
EndPrivate
Grid
-970 620 m 0
 1940 620 l 1024
  Named: "Hauteur ponctuation"
-970 486 m 0
 1940 486 l 1024
  Named: "Rondeur Sup+AOkA-rieur"
-970 645 m 0
 1940 645 l 1024
-921.211914062 460 m 0
 1842.42480469 460 l 1024
  Named: "Hauteur de X"
-920.211914062 405 m 0
 1843.42480469 405 l 1024
  Named: "Empattements_Sup_Bas"
-921.211914062 -7.8740234375 m 0
 1842.42480469 -7.8740234375 l 1024
  Named: "Rondeur Inf+AOkA-rieur"
-913.270507812 -196.155273438 m 0
 1850.36621094 -196.155273438 l 1024
  Named: "Empattement_Inf_Haut"
EndSplineSet
BeginChars: 256 27

StartChar: p
Encoding: 112 112 1
Width: 707
VWidth: 928
Flags: W
HStem: -260 21G<-63 26> 452 18<55.3926 149.982> 459 11<-1 0>
VStem: 0 22<-205.038 3.44287 227.971 405>
LayerCount: 2
Fore
SplineSet
457 223 m 2xb0
 457 202 457 174 446 144 c 0
 443 135 437 125 432 117 c 0
 405 66 374 35 341 17 c 0
 262 -28 182 1 174 4 c 1
 172 4 l 1
 164 10 156 10 148 17 c 0
 124 28 58 54 25 -7 c 1
 26 -260 l 1
 -63 -260 l 1
 -63 -260 -21 -216 0 -195 c 1
 0 405 l 1
 -63 470 l 1
 194 470 l 1
 194 470 456 464 457 230 c 1
 457 223 l 2xb0
-1 459 m 1
 0 459 l 1
 -1 459 l 1
103 452 m 0xd0
 71 452 45 440 22 429 c 1
 22 381 l 1
 24 230 l 1
 62 223 99 195 126 138 c 0
 140 103 187 2 280 16 c 0
 329 25 383 46 421 165 c 1
 397 158 267 143 218 308 c 0
 200 360 210 441 121 450 c 0
 116 451 111 452 106 452 c 0
 105 452 104 452 103 452 c 0xd0
EndSplineSet
EndChar

StartChar: b
Encoding: 98 98 2
Width: 725
VWidth: 915
Flags: HW
HStem: -2.46094 20.6709<25.0143 91.2653>
VStem: 0.774082 24.2109<34.7771 241.987 394.018 694.569> 411.831 63.166<301.731 349.584>
LayerCount: 2
Fore
SplineSet
463.387695312 330.123046875 m 4
 475.463867188 298.491210938 474.998046875 270.642578125 474.998046875 248.081054688 c 4
 474.998046875 129.594726562 390.4921875 58.6298828125 340.313476562 34.4482421875 c 4
 237.881835938 -7.921875 153.618164062 -14.3330078125 26.140625 -2.64453125 c 4
 25.7431640625 -2.6064453125 25.3837890625 -2.4609375 25.015625 -2.4609375 c 4
 17.0419921875 -1.0771484375 9.3984375 0.0126953125 2.0849609375 0.80859375 c 4
 1.654296875 0.8798828125 1.21875 0.9287109375 0.775390625 0.9541015625 c 6
 0.775390625 683.135742188 l 5
 -21.6513671875 704.678710938 -66.494140625 747.815429688 -66.494140625 747.815429688 c 5
 24.986328125 747.815429688 l 5
 24.986328125 394.017578125 l 5
 46.859375 396.674804688 69.1796875 404.784179688 90.76171875 420.440429688 c 4
 94.865234375 423.349609375 98.83203125 426.259765625 102.819335938 428.947265625 c 4
 127.602539062 446.203125 148.89453125 458.793945312 166.771484375 467.90234375 c 4
 170.77734375 469.754882812 174.666992188 471.461914062 178.48828125 473.0625 c 5
 179.293945312 473.392578125 l 6
 188.3828125 476.922851562 271.734375 507.099609375 353.893554688 461.092773438 c 4
 387.853515625 442.090820312 421.58984375 410.060546875 449.807617188 357.788085938 c 4
 454.501953125 349.125976562 459.051757812 339.91015625 463.387695312 330.123046875 c 4
227.221679688 158.35546875 m 4
 277.487304688 330.666015625 380.791992188 306.387695312 411.83203125 301.731445312 c 5
 411.114257812 402.98046875 344.096679688 454.971679688 288.263671875 459.967773438 c 4
 191.29296875 474.303710938 144.625976562 370.165039062 130.2890625 334.274414062 c 4
 102.615234375 273.291015625 64.291015625 246.9453125 25.015625 239.340820312 c 5
 25.015625 41.0732421875 l 5
 47.0048828125 29.607421875 58.80078125 19.0439453125 91.2666015625 18.2099609375 c 4
 199.00390625 15.513671875 209.276367188 100.873046875 227.221679688 158.35546875 c 4
EndSplineSet
EndChar

StartChar: a
Encoding: 97 97 3
Width: 686
InSpiro: 1
Flags: HW
LayerCount: 2
Fore
SplineSet
435.573242188 27.005859375 m 2
 436 27.005859375 l 1
 436 0.349609375 l 1
 370.252929688 0.349609375 l 1
 370.252929688 95.458984375 l 1
 344.140625 34.98828125 280.64453125 -15.6552734375 167.46484375 -8.7197265625 c 0
 67.1669921875 0.931640625 21.12109375 42.4091796875 7.328125 103.102539062 c 1
 7.328125 103.102539062 l 1
 7.017578125 104.3828125 6.7646484375 105.682617188 6.4833984375 106.982421875 c 0
 -7.2509765625 173.204101562 5.9501953125 218.10546875 20.6943359375 245.1484375 c 0
 24.6923828125 252.588867188 29.359375 259.543945312 34.681640625 266.0234375 c 2
 35.1953125 266.615234375 l 2
 38.619140625 270.594726562 42.232421875 274.255859375 46.166015625 277.731445312 c 0
 73.5498046875 302.204101562 111.651367188 315.290039062 145.5234375 322.283203125 c 0
 146.06640625 322.399414062 146.541992188 322.506835938 147.163085938 322.623046875 c 0
 147.783203125 322.739257812 148.404296875 322.884765625 148.99609375 322.991210938 c 0
 182.946289062 329.606445312 168.30859375 326.337890625 259.576171875 334.631835938 c 0
 259.653320312 334.631835938 259.770507812 334.631835938 259.88671875 334.631835938 c 1
 259.88671875 334.631835938 l 1
 286.42578125 337.900390625 303.051757812 345.233398438 311.78125 350.2578125 c 2
 312.034179688 350.422851562 l 2
 314.647460938 351.884765625 317.096679688 353.55859375 319.396484375 355.447265625 c 0
 319.3984375 355.45703125 319.399414062 355.466796875 319.399414062 355.4765625 c 0
 319.399414062 355.486328125 319.3984375 355.49609375 319.396484375 355.505859375 c 0
 325.720703125 359.94921875 331.700195312 364.641601562 337.505859375 369.715820312 c 0
 337.684570312 369.85546875 337.850585938 370.001953125 338.010742188 370.162109375 c 0
 342.149414062 373.651367188 345.909179688 377.401367188 349.408203125 381.53125 c 0
 349.408203125 381.588867188 349.408203125 381.588867188 349.408203125 381.588867188 c 1
 382.737304688 421.359375 334.420898438 446.79296875 314.48828125 455.14453125 c 0
 305.41796875 458.073242188 296.708007812 460.52734375 288.297851562 462.564453125 c 0
 288.220703125 462.564453125 288.1328125 462.564453125 288.1328125 462.564453125 c 1
 288.006835938 462.564453125 l 1
 131.390625 500.209960938 77.720703125 391.91015625 77.720703125 391.91015625 c 1
 77.720703125 391.91015625 37.1064453125 392.026367188 8.8505859375 392.026367188 c 1
 34.623046875 422.678710938 91.3974609375 484.544921875 251.854492188 485.514648438 c 0
 312.858398438 485.883789062 349.37890625 468.288085938 370.1953125 443.969726562 c 0
 387.655273438 423.638671875 394.0859375 398.592773438 394.677734375 375.439453125 c 2
 394.677734375 59.859375 l 2
 394.677734375 27.87890625 431.508789062 27.005859375 435.573242188 27.005859375 c 2
  Spiro
    435.573 27.0059 [
    436 27.0059 v
    436 0.349609 v
    370.253 0.349609 v
    370.253 95.459 v
    331.276 40.0812 o
    264.457 1.74304 o
    167.465 -8.71973 o
    84.5028 11.0439 o
    32.6491 49.328 o
    7.32812 103.103 v
    7.32812 103.103 v
    7.03388 104.387 o
    6.75812 105.685 o
    6.4834 106.982 o
    0.785678 166.173 o
    7.41588 212.064 o
    20.6943 245.148 o
    24.9104 252.42 o
    29.5832 259.392 o
    34.6816 266.023 [
    35.1953 266.615 ]
    38.6836 270.49 o
    42.3381 274.193 o
    46.166 277.731 o
    76.5359 298.587 o
    110.83 313.075 o
    145.523 322.283 o
    146.051 322.397 o
    146.583 322.509 o
    147.163 322.623 o
    147.782 322.746 o
    148.396 322.874 o
    148.996 322.991 o
    172.454 327.104 o
    197.926 329.401 o
    259.576 334.632 ]
    259.887 334.632 v
    259.887 334.632 v
    283.176 339.014 o
    300.359 344.706 o
    311.781 350.258 [
    312.034 350.423 ]
    314.591 351.954 o
    317.049 353.632 o
    319.396 355.447 o
    319.399 355.462 o
    319.399 355.477 o
    319.399 355.491 o
    319.396 355.506 o
    325.606 360.033 o
    331.642 364.769 o
    337.506 369.716 o
    337.68 369.858 o
    337.849 370.006 o
    338.011 370.162 o
    342.024 373.739 o
    345.822 377.527 o
    349.408 381.531 ]
    349.408 381.589 v
    359.606 416.449 o
    339.78 441.22 o
    314.488 455.145 o
    305.545 457.915 o
    296.802 460.389 o
    288.298 462.564 ]
    288.133 462.564 v
    288.007 462.564 v
    163.974 461.009 o
    97.3945 418.55 o
    77.7207 391.91 v
    66.1658 391.94 o
    39.2334 391.996 o
    8.85059 392.026 v
    47.5944 429.631 o
    123.366 467.689 o
    251.854 485.515 o
    304.977 480.322 o
    343.851 465.612 o
    370.195 443.97 o
    384.16 422.335 o
    391.952 398.955 o
    394.678 375.439 [
    394.678 59.8594 ]
    404.36 37.1429 o
    423.182 28.4127 o
    0 0 z
  EndSpiro
143.069335938 67.8818359375 m 0
 216.149414062 118.389648438 232.1640625 229.91015625 370.1953125 191.381835938 c 1
 370.1953125 314.154296875 l 1
 368.109375 310.75 331.53125 240.512695312 166.271484375 275.063476562 c 0
 76.4013671875 293.98828125 39.58984375 211.547851562 36.2919921875 190.286132812 c 0
 16.8623046875 65.708984375 79.49609375 23.9404296875 143.069335938 67.8818359375 c 0
  Spiro
    143.069 67.8818 o
    203.705 130.842 o
    266.28 187.749 o
    370.195 191.382 v
    370.195 314.154 v
    353.159 294.858 o
    292.036 269.069 o
    166.271 275.063 o
    93.4204 266.251 o
    51.4572 225.877 o
    36.292 190.286 o
    41.186 93.4884 o
    82.8678 52.3901 o
    0 0 z
  EndSpiro
EndSplineSet
EndChar

StartChar: c
Encoding: 99 99 4
Width: 670
Flags: HW
HStem: 466.384 20G<242.182 284.531>
LayerCount: 2
Fore
SplineSet
102.528320312 66.4658203125 m 1
 241.404296875 -48.6298828125 345.333984375 75.1015625 354.350585938 85.740234375 c 1
 367.517578125 77.7724609375 380.326171875 75.662109375 392.2578125 69.6962890625 c 0
 401.114257812 66.6181640625 410.51953125 64.240234375 420 62.7412109375 c 1
 380.458007812 23.5029296875 323.336914062 -8.3125 246.293945312 -8.3125 c 0
 238.625 -8.3125 230.963867188 -7.234375 223.526367188 -7.234375 c 0
 110.61328125 3.2802734375 7.64453125 91.876953125 -0.5537109375 224.052734375 c 0
 -0.62109375 224.489257812 -0.62109375 224.896484375 -0.62109375 225.293945312 c 0
 -0.728515625 225.953125 -0.728515625 226.65234375 -0.728515625 227.311523438 c 0
 -0.896484375 229.69140625 -1.0283203125 232.103515625 -1.0283203125 234.60546875 c 0
 -1.0283203125 237.560546875 -1.0283203125 240.516601562 -1.0283203125 243.471679688 c 0
 -0.990234375 244.830078125 -0.912109375 246.1875 -0.912109375 247.506835938 c 0
 -0.779296875 249.6640625 -0.5537109375 251.8515625 -0.5537109375 254.025390625 c 0
 7.654296875 386.360351562 110.639648438 474.80078125 223.526367188 485.3125 c 0
 223.749023438 485.379882812 223.962890625 485.379882812 224.185546875 485.379882812 c 0
 231.434570312 486.049804688 238.470703125 486.383789062 245.892578125 486.383789062 c 0
 323.168945312 486.383789062 380.548828125 454.432617188 419.98046875 415.258789062 c 1
 395.204101562 411.340820312 374.2109375 404.303710938 354.350585938 392.211914062 c 1
 346.125 401.916992188 258.34375 507.473632812 141.115234375 438.130859375 c 0
 107.275390625 418.11328125 46.5498046875 352.712890625 93.798828125 255.111328125 c 0
 124.916015625 190.80078125 216.231445312 173.427734375 102.528320312 66.4658203125 c 1
92.3046875 58.9296875 m 1
 93.439453125 58.337890625 l 1
 93.439453125 58.337890625 92.595703125 57.42578125 92.3046875 58.9296875 c 1
EndSplineSet
EndChar

StartChar: d
Encoding: 100 100 5
Width: 792
Flags: HW
VStem: 450.374 24.2598<239.41 448.241 481.58 696.741>
LayerCount: 2
Fore
SplineSet
450.374023438 750.124023438 m 1
 542 750.0859375 l 1
 542 750.0859375 497.108398438 706.881835938 474.633789062 685.280273438 c 1
 474.633789062 3.9521484375 l 1
 415.977539062 47.5634765625 382.716796875 28.076171875 340.317382812 13.7685546875 c 0
 305.513671875 1.119140625 271.592773438 -2.7314453125 268.256835938 -3.0615234375 c 0
 268.212890625 -3.0654296875 268.171875 -3.0673828125 268.126953125 -3.0673828125 c 0
 268.08203125 -3.0673828125 268.038085938 -3.0654296875 267.994140625 -3.0615234375 c 0
 234.946289062 -10.142578125 177.474609375 -14.759765625 120.5546875 17.115234375 c 0
 86.537109375 36.185546875 52.732421875 68.2724609375 24.45703125 120.65234375 c 0
 19.791015625 129.3046875 15.2412109375 138.548828125 10.876953125 148.375 c 0
 -1.228515625 180.094726562 -0.71484375 207.93359375 -0.71484375 230.534179688 c 0
 -0.71484375 349.252929688 83.8984375 420.36328125 134.182617188 444.61328125 c 0
 236.837890625 487.041015625 321.228515625 493.462890625 448.977539062 481.764648438 c 0
 449.375 481.725585938 449.743164062 481.580078125 450.112304688 481.580078125 c 0
 450.189453125 481.580078125 450.295898438 481.580078125 450.374023438 481.580078125 c 1
 450.374023438 750.124023438 l 1
388.390625 60.8330078125 m 1
 388.536132812 60.91015625 l 1
 388.4921875 60.87890625 388.443359375 60.8525390625 388.390625 60.8330078125 c 1
450.102539062 239.37109375 m 0
 450.189453125 239.37109375 450.295898438 239.41015625 450.364257812 239.41015625 c 1
 450.364257812 448.241210938 l 1
 450.102539062 448.357421875 l 2
 423.184570312 461.151367188 394.317382812 471.055664062 362.627929688 469.998046875 c 0
 254.696289062 466.360351562 230.930664062 396.016601562 236.828125 335.983398438 c 0
 242.483398438 278.180664062 169.607421875 203.180664062 39.6279296875 227.342773438 c 1
 28.947265625 84.63671875 135.967773438 29.181640625 186.330078125 18.4052734375 c 0
 283.514648438 4.01953125 330.249023438 108.333984375 344.625 144.310546875 c 0
 372.30859375 205.420898438 410.7109375 231.78515625 450.102539062 239.37109375 c 0
EndSplineSet
EndChar

StartChar: x
Encoding: 120 120 6
Width: 692
Flags: HW
HStem: 0.447266 25.9961<0.46582 51.0571> 449.645 25.9668<391.116 442>
LayerCount: 2
Fore
SplineSet
250.463867188 256.138671875 m 6
 247.219726562 251.890625 243.947265625 247.674804688 240.676757812 243.4609375 c 5
 271.1484375 238.270507812 288.514648438 234.4296875 312.369140625 226.573242188 c 4
 538.708984375 152.0390625 399.18359375 0.669921875 399.18359375 0.669921875 c 5
 241.375 0.669921875 l 5
 285.19140625 18.4169921875 360.826171875 69.0048828125 363.594726562 98.50390625 c 4
 373.598632812 178.91015625 294.916015625 209.229492188 225.079101562 223.294921875 c 5
 205.484375 198.278320312 l 4
 155.302734375 132.801757812 99.9404296875 62.6259765625 51.5556640625 0.447265625 c 5
 0.4658203125 0.447265625 l 5
 0.4658203125 26.443359375 l 5
 17.92578125 26.443359375 l 6
 20.8359375 26.443359375 41.0693359375 26.908203125 51.5556640625 39.5673828125 c 4
 54.826171875 41.5146484375 58 47.8896484375 60.634765625 51.236328125 c 4
 94.8505859375 95.2626953125 146.014648438 159.634765625 182.669921875 208.046875 c 6
 198.239257812 228.134765625 l 5
 198.0546875 228.134765625 l 5
 199.616210938 230.142578125 l 5
 169.21875 235.280273438 151.883789062 239.166992188 128.079101562 247.021484375 c 4
 -98.232421875 321.575195312 43.5234375 475.552734375 43.5234375 475.552734375 c 5
 199.16015625 475.552734375 l 5
 154.747070312 457.6171875 79.7568359375 405.298828125 76.9404296875 375.109375 c 4
 66.8955078125 294.657226562 145.551757812 264.357421875 215.3984375 250.290039062 c 4
 215.885742188 250.924804688 216.479492188 251.493164062 216.959960938 252.1328125 c 6
 229.5703125 268.341796875 l 6
 284.7109375 338.036132812 338.900390625 408.982421875 390.5703125 475.611328125 c 5
 442 475.611328125 l 5
 442 449.64453125 l 5
 424.540039062 449.64453125 l 6
 421.543945312 449.64453125 398.745117188 448.358398438 389.765625 434.997070312 c 4
 351.525390625 385.596679688 299.486328125 318.79296875 257.45703125 265.140625 c 6
 250.463867188 256.138671875 l 6
EndSplineSet
EndChar

StartChar: s
Encoding: 115 115 7
Width: 650
Flags: HW
VStem: 299.758 56.3281<360.181 405.93>
LayerCount: 2
Fore
SplineSet
0.0078125 160.051757812 m 1
 68.3046875 160.051757812 l 1
 68.3046875 160.051757812 60.322265625 35.474609375 192.134765625 8.5859375 c 0
 298.224609375 -13.064453125 406.1171875 90.06640625 301.833007812 169.111328125 c 0
 279.037109375 184.922851562 242.97265625 193.361328125 203.18359375 196.678710938 c 0
 161.939453125 201.625976562 84.9794921875 215.409179688 49.6328125 300.52734375 c 1
 22.103515625 380.74609375 89.9169921875 468.706054688 170.814453125 482.88671875 c 0
 251.654296875 496.544921875 337.499023438 470.005859375 356.084960938 407.760742188 c 1
 369.665039062 345.147460938 309.650390625 324.641601562 299.756835938 359.115234375 c 0
 281.588867188 424.551757812 246.407226562 454.330078125 167.536132812 451.372070312 c 0
 138.028320312 449.053710938 42.056640625 418.188476562 77.03515625 329.530273438 c 0
 87.5791015625 306.647460938 110.926757812 279.6328125 215.056640625 309.518554688 c 1
 334.0078125 335.030273438 452.328125 214.545898438 375.620117188 71.03515625 c 0
 342.125976562 15.4736328125 281.91796875 -26.7900390625 166.614257812 -0.1923828125 c 0
 114.932617188 10.7490234375 43.4345703125 48.9580078125 0.0078125 160.051757812 c 1
EndSplineSet
EndChar

StartChar: e
Encoding: 101 101 8
Width: 744
Flags: HW
HStem: -7.34961 46.7246<150.384 265.042> 228.632 258.718<110.055 342.247> 228.632 14.6084<25.4902 251.142>
VStem: -0.699219 31.0977<175.381 228.632 243.24 319.331>
LayerCount: 2
Fore
SplineSet
246.650390625 487.349609375 m 0xd0
 382.217773438 487.349609375 492.263671875 378.360351562 494 243.240234375 c 2
 494 228.631835938 l 1
 24.87890625 228.631835938 l 1xb0
 24.5107421875 210.172851562 26.3056640625 192.731445312 29.9228515625 178.618164062 c 2
 30.0302734375 178.2109375 l 2
 30.0517578125 178.048828125 30.087890625 177.887695312 30.13671875 177.735351562 c 0
 30.17578125 177.522460938 30.2919921875 177.260742188 30.2919921875 177.046875 c 0
 30.359375 176.927734375 30.3984375 176.788085938 30.3984375 176.641601562 c 0
 30.3984375 176.640625 30.3984375 176.640625 30.3984375 176.639648438 c 0
 30.5048828125 176.290039062 30.650390625 175.9609375 30.728515625 175.669921875 c 0
 30.73828125 175.622070312 30.7431640625 175.57421875 30.7431640625 175.524414062 c 0
 30.7431640625 175.474609375 30.73828125 175.42578125 30.728515625 175.37890625 c 0
 35.7333984375 157.647460938 63.7373046875 71.65625 139.668945312 45.6220703125 c 0
 158.719726562 39.123046875 180.651367188 36.3779296875 206.026367188 39.375 c 1
 255.418945312 47.2314453125 300.204101562 79.4453125 326.568359375 104.200195312 c 1
 337.280273438 114.737304688 346.672851562 126.25390625 354.86328125 138.92578125 c 1
 404.625 110.1171875 460.6328125 117.760742188 461.66015625 118.012695312 c 1
 456.0703125 108.15625 449.827148438 98.8203125 442.900390625 89.931640625 c 0
 442.172851562 89.05859375 441.513671875 88.17578125 440.825195312 87.341796875 c 0
 440.37890625 86.75 439.981445312 86.2060546875 439.505859375 85.6533203125 c 0
 390.627929688 25.6298828125 315.569335938 -6.21484375 250.268554688 -7.349609375 c 0
 249.02734375 -7.349609375 247.814453125 -7.349609375 246.650390625 -7.349609375 c 0
 110.07421875 -7.349609375 -0.69921875 103.39453125 -0.69921875 240 c 0
 -0.69921875 376.60546875 110.0546875 487.349609375 246.650390625 487.349609375 c 0xd0
25.490234375 243.240234375 m 1
 251.141601562 243.240234375 l 1
 203.029296875 297.598632812 186.869140625 350.356445312 152.647460938 364.431640625 c 0
 68.306640625 394.95703125 31.009765625 315.184570312 25.490234375 243.240234375 c 1
EndSplineSet
EndChar

StartChar: f
Encoding: 102 102 9
Width: 587
Flags: HW
HStem: 0.291016 21G<17.2153 210.91> 526.787 24.25<25.5527 146.803> 729.168 24.5605<112.373 225.563>
VStem: 0.419922 25.1328<291.52 526.787 551.037 643.876 673.82 695.612> 312.479 24.5215<585.414 641.317>
LayerCount: 2
Fore
SplineSet
337 585.4140625 m 5
 312.478515625 585.4140625 l 5
 312.478515625 664.682617188 247.993164062 729.16796875 168.6953125 729.16796875 c 4
 93.8505859375 729.16796875 32.216796875 671.705078125 25.552734375 598.567382812 c 4
 25.1357421875 594.231445312 24.94140625 589.836914062 24.94140625 585.4140625 c 4
 24.94140625 580.991210938 25.1357421875 576.567382812 25.552734375 572.231445312 c 6
 25.552734375 551.037109375 l 5
 146.802734375 551.037109375 l 5
 146.802734375 526.787109375 l 5
 25.552734375 526.787109375 l 5
 25.552734375 329.276367188 l 5
 30.509765625 246.205078125 146.948242188 223.545898438 177.9296875 206.900390625 c 4
 327.145507812 126.604492188 210.91015625 0.291015625 210.91015625 0.291015625 c 5
 0.419921875 0.291015625 l 5
 34.0107421875 5.8876953125 116.51953125 102.004882812 56.3984375 185.02734375 c 4
 54.109375 188.21875 51.8974609375 191.322265625 49.763671875 194.377929688 c 4
 38.5458984375 210.25 28.4072265625 226.889648438 19.4033203125 244.255859375 c 4
 3.330078125 278.875 0.73046875 306.083007812 0.419921875 317.005859375 c 6
 0.419921875 684.3828125 l 5
 -22.0546875 705.995117188 -63.337890625 745.599609375 -63.337890625 745.599609375 c 5
 25.552734375 745.599609375 l 5
 25.552734375 673.8203125 l 5
 55.1884765625 721.84375 108.176757812 753.704101562 168.6953125 753.728515625 c 4
 261.514648438 753.689453125 337 678.204101562 337 585.4140625 c 5
EndSplineSet
EndChar

StartChar: g
Encoding: 103 103 10
Width: 684
Flags: HW
HStem: 119.256 18.8857<57.6334 108.187> 124.745 32.5928<102.283 155.134 155.206 195.672> 435.407 28.3145<331.539 416.433> 465.782 20G<180.91 207.414>
VStem: -0.570312 22.7754<241.596 361.229>
LayerCount: 2
Fore
SplineSet
433.834960938 -107.065429688 m 0xb8
 433.893554688 -108.453125 433.990234375 -110.078125 433.990234375 -111.584960938 c 2
 433.990234375 -112.642578125 l 2
 433.990234375 -113.17578125 434 -113.71875 434 -114.291015625 c 2
 434 -117.045898438 l 2
 434 -117.890625 433.94140625 -118.724609375 433.94140625 -119.5390625 c 0
 433.912109375 -120.19921875 433.844726562 -120.887695312 433.844726562 -121.546875 c 0
 433.815429688 -121.963867188 433.756835938 -122.536132812 433.756835938 -122.807617188 c 2
 433.756835938 -123.583984375 l 1
 428.77734375 -194.3515625 383.057617188 -238.892578125 327.803710938 -260.043945312 c 0
 185.749023438 -314.423828125 89.5908203125 -256.549804688 63.7021484375 -238.868164062 c 0
 41.8671875 -223.338867188 26.1826171875 -203.424804688 17.03515625 -182.220703125 c 0
 10.923828125 -168.408203125 7.470703125 -153.123046875 7.470703125 -137.057617188 c 0
 7.470703125 -109.639648438 28.62109375 -100.666992188 32.361328125 -99.68359375 c 0
 120.512695312 -82.404296875 141.057617188 -146.90625 184.865234375 -189.087890625 c 0
 206.299804688 -213.553710938 232.883789062 -237.33984375 270.370117188 -247.268554688 c 0
 278.7109375 -249.805664062 287.467773438 -251.189453125 296.6328125 -251.189453125 c 0
 315.55078125 -251.189453125 328.698242188 -247.188476562 346.108398438 -237.578125 c 0
 365.692382812 -222.98046875 404.501953125 -184.645507812 375.294921875 -124.252929688 c 0
 356.01171875 -84.4345703125 299.48046875 -73.697265625 369.873046875 -7.4462890625 c 1
 313.98046875 38.8408203125 266.680664062 23.18359375 238.53515625 3.0498046875 c 0
 228.465820312 -3.544921875 216.830078125 -10.259765625 206.427734375 -15.4189453125 c 0
 151.817382812 -42.71484375 109.553710938 -42.802734375 91.23046875 -40.96875 c 1
 90.9296875 -40.96875 l 1
 50.6455078125 -35.888671875 28.533203125 -19.568359375 17.91796875 -3.9638671875 c 0
 17.69140625 -3.5068359375 17.162109375 -2.8623046875 17.015625 -2.615234375 c 0
 -9.322265625 36.916015625 1.0703125 76.93359375 4.7451171875 84.509765625 c 0
 19.369140625 118.020507812 50.12109375 136.618164062 105.96484375 138.141601562 c 1
 108.186523438 138.141601562 l 1xb8
 44.1142578125 166.140625 -0.5703125 230.036132812 -0.5703125 304.379882812 c 0
 -0.5703125 404.522460938 80.599609375 485.711914062 180.72265625 485.711914062 c 0
 180.806640625 485.711914062 180.868164062 485.782226562 180.952148438 485.782226562 c 0
 233.875 485.782226562 281.515625 462.986328125 314.583007812 426.6875 c 1
 318.462890625 438.986328125 l 1
 318.462890625 463.721679688 l 1
 416.432617188 463.721679688 l 1
 416.432617188 435.407226562 l 1
 368.000976562 435.407226562 l 2
 364.227539062 435.407226562 334.322265625 434.6796875 326.397460938 412.370117188 c 1
 348.752929688 382.204101562 361.995117188 344.612304688 361.995117188 304.217773438 c 0
 361.995117188 280.461914062 357.420898438 257.766601562 349.10546875 236.96484375 c 1
 330.694335938 233.240234375 252.056640625 246.2578125 209.677734375 281.740234375 c 0
 153.1171875 329.125 142.194335938 383.143554688 111.814453125 395.588867188 c 0
 29.5 425.397460938 8.3154296875 311.819335938 21.8173828125 259.4296875 c 0
 21.93359375 259.012695312 22.205078125 258.342773438 22.205078125 257.984375 c 0
 25.5166015625 244.297851562 46.494140625 181.079101562 102.279296875 161.92578125 c 0
 116.198242188 157.153320312 132.369140625 154.649414062 150.924804688 157.337890625 c 0
 187.193359375 162.59375 219.930664062 186.689453125 239.252929688 204.8671875 c 1
 291.827148438 181.413085938 320.102539062 189.056640625 320.8203125 189.26953125 c 1
 287.61328125 148.736328125 237.234375 122.970703125 180.751953125 122.970703125 c 0
 171.732421875 122.970703125 163.288085938 123.8828125 155.134765625 124.745117188 c 0
 155.076171875 124.745117188 157.927734375 124.396484375 155.076171875 124.745117188 c 0x78
 133.422851562 127.400390625 111.5703125 125.756835938 84.5087890625 119.255859375 c 1
 84.32421875 119.255859375 l 1
 58.1279296875 112.90625 1.33203125 91.9267578125 34.1171875 52.76171875 c 0
 34.1171875 52.7041015625 31.244140625 56.0947265625 34.1171875 52.7041015625 c 0
 46.033203125 38.6376953125 61.5771484375 26.2734375 80.91015625 20.130859375 c 0
 83.8203125 19.3837890625 155.900390625 0.7314453125 208.387695312 21.673828125 c 0
 232.62109375 31.1845703125 262.799804688 41.61328125 293.048828125 38.2890625 c 0
 293.58203125 38.2314453125 294.038085938 38.134765625 294.552734375 38.134765625 c 0
 294.616210938 38.1416015625 294.678710938 38.146484375 294.745117188 38.146484375 c 0
 297.485351562 38.146484375 300.331054688 37.5830078125 303.040039062 37.1640625 c 0
 371.575195312 27.0673828125 428.245117188 -26.8486328125 433.747070312 -105.047851562 c 1
 433.747070312 -105.803710938 l 2
 433.776367188 -106.220703125 433.834960938 -106.666992188 433.834960938 -107.065429688 c 0xb8
375.528320312 -2.4794921875 m 1
 375.528320312 -2.4794921875 376.071289062 -1.9169921875 376.24609375 -2.8388671875 c 1
 375.528320312 -2.4794921875 l 1
251.54296875 -252.33203125 m 1
 251.462890625 -252.413085938 251.372070312 -252.481445312 251.271484375 -252.536132812 c 1
 251.54296875 -252.33203125 l 1
253.462890625 -265.01953125 m 1
 256.373046875 -265.534179688 259.3125 -265.98046875 262.2421875 -266.309570312 c 1
 261.669921875 -263.9140625 l 1
 253.462890625 -265.01953125 l 1
EndSplineSet
EndChar

StartChar: h
Encoding: 104 104 11
Width: 638
Flags: HW
HStem: -0.115234 21G<16.728 158.12 295.904 388>
VStem: -0.232422 24.5508<380.59 690.65>
LayerCount: 2
Fore
SplineSet
388 -0.115234375 m 1
 321.33203125 -0.115234375 l 1
 270.475585938 59.248046875 367.174804688 118.583007812 364.361328125 203.37109375 c 0
 361.548828125 288.158203125 307.849609375 279.690429688 262.657226562 293.833007812 c 0
 126.973632812 333.389648438 132.676757812 426.665039062 138.302734375 446.423828125 c 1
 73.3125 426.665039062 33.7080078125 381.43359375 25.23046875 341.8671875 c 0
 13.94921875 265.547851562 95.884765625 228.8046875 124.169921875 217.513671875 c 0
 273.95703125 149.671875 158.120117188 -0.115234375 158.120117188 -0.115234375 c 1
 -0.212890625 -0.115234375 l 1
 33.6689453125 5.51953125 117.001953125 102.578125 56.2890625 186.424804688 c 0
 53.98046875 189.635742188 51.759765625 192.778320312 49.5966796875 195.84375 c 0
 38.2734375 211.87890625 28.037109375 228.686523438 18.9443359375 246.225585938 c 0
 2.7255859375 281.145507812 0.09765625 308.6640625 -0.232421875 319.693359375 c 2
 -0.232421875 690.650390625 l 1
 -68.326171875 756.115234375 l 1
 24.318359375 756.115234375 l 1
 24.318359375 380.58984375 l 1
 92.12109375 490.810546875 152.358398438 488.841796875 191.962890625 488.841796875 c 0
 285.23828125 488.841796875 331.846679688 428.051757812 360.131835938 382.859375 c 0
 399.688476562 309.353515625 384.129882812 231.646484375 367.174804688 135.509765625 c 0
 350.21875 39.373046875 388 -0.115234375 388 -0.115234375 c 1
EndSplineSet
EndChar

StartChar: i
Encoding: 105 105 12
Width: 458
Flags: HW
HStem: 0.259766 21G<17.1988 164.149> 456 20G<-68.4863 37.5733> 512.177 107.573<63.2241 147.84>
VStem: 0.0830738 37.4902<271.848 409> 51.7452 107.573<523.662 608.272>
LayerCount: 2
Fore
SplineSet
72.310546875 127.873046875 m 1
 72.310546875 127.873046875 71.4765625 126.9609375 71.17578125 128.46484375 c 1
 72.310546875 127.873046875 l 1
72.310546875 127.873046875 m 1
 72.310546875 127.873046875 71.4765625 126.9609375 71.17578125 128.46484375 c 1
 72.310546875 127.873046875 l 1
164.150390625 0.259765625 m 1
 0.1240234375 0.259765625 l 1
 34.27734375 5.953125 118.220703125 103.700195312 57.072265625 188.12890625 c 0
 54.75390625 191.388671875 52.50390625 194.541015625 50.2822265625 197.654296875 c 0
 38.8701171875 213.797851562 28.556640625 230.72265625 19.3974609375 248.385742188 c 0
 3.04296875 283.586914062 0.423828125 311.250976562 0.0849609375 322.38671875 c 2
 0.0849609375 409 l 1
 -68.484375 476 l 1
 37.5751953125 476 l 1
 37.5751953125 334.725585938 l 1
 42.638671875 250.2578125 99.1025390625 227.229492188 130.598632812 210.284179688 c 0
 282.364257812 128.70703125 164.150390625 0.259765625 164.150390625 0.259765625 c 1
51.7470703125 565.944335938 m 0
 51.7470703125 565.951171875 51.7470703125 565.95703125 51.7470703125 565.963867188 c 0
 51.7470703125 595.649414062 75.84765625 619.75 105.533203125 619.75 c 0
 135.21875 619.75 159.3203125 595.649414062 159.3203125 565.963867188 c 0
 159.3203125 536.28515625 135.229492188 512.1875 105.552734375 512.176757812 c 0
 105.54296875 512.176757812 105.533203125 512.176757812 105.5234375 512.176757812 c 0
 75.8466796875 512.176757812 51.751953125 536.268554688 51.7470703125 565.944335938 c 0
EndSplineSet
EndChar

StartChar: j
Encoding: 106 106 13
Width: 732
Flags: HW
HStem: 539.333 105.535<386.947 471.517>
VStem: 290.153 36.7529<-151.503 253.436> 376.464 105.536<549.816 634.385>
LayerCount: 2
Fore
SplineSet
376.463867188 592.100585938 m 0
 376.463867188 621.243164062 400.088867188 644.868164062 429.231445312 644.868164062 c 0
 458.375 644.868164062 482 621.243164062 482 592.100585938 c 0
 482 562.958007812 458.375 539.333007812 429.231445312 539.333007812 c 0
 400.088867188 539.333007812 376.463867188 562.958007812 376.463867188 592.100585938 c 0
290.153320312 -94.6396484375 m 1
 290.153320312 -88.0146484375 l 1
 290.153320312 -88.16015625 290.25 -90.5947265625 290.153320312 -94.6396484375 c 1
3.5859375 -150.084960938 m 1
 -8.880859375 -109.340820312 19.5966796875 -85.263671875 37.119140625 -84.484375 c 1
 17.8642578125 -87.025390625 -5.037109375 -110.295898438 3.5859375 -150.084960938 c 1
215.181640625 -218.1015625 m 1
 164.522460938 -237.428710938 92.8974609375 -229.9453125 50.66015625 -205.65625 c 1
 50.66015625 -205.65625 50.5927734375 -205.579101562 50.5537109375 -205.579101562 c 0
 29.18359375 -193.354492188 11.22265625 -175.166992188 3.595703125 -149.98828125 c 0
 -5.02734375 -110.217773438 17.8740234375 -86.9384765625 37.2060546875 -84.38671875 c 0
 48.525390625 -83.8955078125 56.5078125 -90.3291015625 60.244140625 -102.768554688 c 0
 78.5966796875 -167.060546875 113.943359375 -196.334960938 192.250976562 -193.375976562 c 0
 204.483398438 -192.40625 228.456054688 -187.169921875 249.161132812 -173.762695312 c 0
 287.490234375 -148.942382812 290.153320312 -109.5234375 290.153320312 -88.0146484375 c 2
 290.153320312 191.733398438 l 1
 285.196289062 274.62890625 229.790039062 297.201171875 198.915039062 313.866210938 c 0
 49.9716796875 393.958984375 165.993164062 520.000976562 165.993164062 520.000976562 c 1
 326.90625 520.000976562 l 1
 309.083984375 516.7421875 288.838867188 497.700195312 272.557617188 472.12109375 c 0
 249.151367188 435.50390625 236.444335938 383.405273438 271.025390625 335.642578125 c 0
 283.989257812 317.754882812 298.395507812 295.209960938 307.943359375 276.549804688 c 0
 323.997070312 241.969726562 326.586914062 214.848632812 326.90625 203.92578125 c 2
 326.90625 -99.3349609375 l 2
 326.90625 -101.594726562 326.44140625 -146.806640625 291.016601562 -177.284179688 c 0
 270.298828125 -195.37890625 242.600585938 -209.459960938 215.327148438 -218.1015625 c 1
 215.181640625 -218.1015625 l 1
EndSplineSet
EndChar

StartChar: k
Encoding: 107 107 14
Width: 678
Flags: HW
HStem: -0.18457 21G<-67.0684 25.3145 334.225 428> 203.593 21.6602<197.076 354.682> 460.323 30.167<166.398 321.876>
VStem: 0.831055 24.4834<65.1357 343.264 363.09 688.846> 375.494 14.7344<146.051 186.569>
LayerCount: 2
Fore
SplineSet
390.228515625 173.629882812 m 1
 386.440429688 151.203125 380.525390625 128.758789062 380.525390625 102.760742188 c 0
 380.525390625 79.1962890625 384.875 60.9912109375 393.293945312 42.8935546875 c 0
 404.780273438 18.525390625 417.861328125 6.0810546875 428 -0.1845703125 c 1
 337.790039062 -0.1845703125 l 1
 330.659179688 2.6796875 324.795898438 6.6201171875 320.591796875 12.5615234375 c 0
 317.635742188 16.73828125 320.543945312 12.609375 320.543945312 12.609375 c 1
 303.841796875 37.2822265625 334.708984375 77.765625 356.627929688 120.5703125 c 0
 364.096679688 135.256835938 371.032226562 150.534179688 375.494140625 165.8984375 c 0
 375.494140625 166.131835938 375.54296875 166.354492188 375.571289062 166.548828125 c 0
 380.286132812 212.565429688 276.49609375 203.592773438 276.49609375 203.592773438 c 1
 276.49609375 203.592773438 227.579101562 199.490234375 156.953125 215.155273438 c 0
 142.23828125 218.424804688 126.28125 223.022460938 108.821289062 228.241210938 c 0
 62.958984375 243.423828125 29.3759765625 290.311523438 25.314453125 343.263671875 c 1
 25.314453125 -0.1845703125 l 1
 -67.068359375 -0.1845703125 l 1
 0.8310546875 65.1357421875 l 1
 0.8310546875 688.845703125 l 1
 -67.068359375 754.165039062 l 1
 25.314453125 754.165039062 l 1
 25.314453125 363.08984375 l 1
 27.3427734375 388.955078125 36.283203125 409.981445312 50.630859375 428.012695312 c 0
 79.275390625 464.1640625 133.80859375 490.490234375 223.009765625 490.490234375 c 0
 395.301757812 490.490234375 390.2578125 395.701171875 390.2578125 395.701171875 c 1
 366.0078125 395.701171875 l 1
 366.010742188 395.969726562 366.012695312 396.239257812 366.012695312 396.508789062 c 0
 366.012695312 455.274414062 297.028320312 460.323242188 238.821289062 460.323242188 c 0
 165.754882812 460.323242188 104.45703125 424.673828125 104.45703125 348.986328125 c 0
 104.45703125 265.34375 176.916015625 225.252929688 277.5625 225.252929688 c 0
 362.922851562 225.252929688 383.796875 200.750976562 388.8125 186.569335938 c 0
 389.765625 184.049804688 390.287109375 181.318359375 390.287109375 178.465820312 c 0
 390.287109375 177.869140625 390.2734375 177.2890625 390.228515625 176.705078125 c 2
 390.228515625 173.629882812 l 1
EndSplineSet
EndChar

StartChar: l
Encoding: 108 108 15
Width: 506
Flags: HW
HStem: 0.157227 21G<16.4054 212.365> 737.843 20G<-47.9873 36.7271>
VStem: -0.569729 37.2969<283.23 692.232>
LayerCount: 2
Fore
SplineSet
212.36328125 0.1572265625 m 1
 -0.5712890625 0.1572265625 l 1
 33.37890625 5.8212890625 116.88671875 103.064453125 56.0673828125 187.056640625 c 0
 53.7392578125 190.276367188 51.5087890625 193.419921875 49.35546875 196.513671875 c 0
 38.005859375 212.568359375 27.7451171875 229.39453125 18.625 246.954101562 c 0
 2.4267578125 282 -0.2607421875 309.528320312 -0.5712890625 320.596679688 c 2
 -0.5712890625 692.232421875 l 1
 -68.78125 757.842773438 l 1
 36.7255859375 756.698242188 l 1
 36.7255859375 332.954101562 l 1
 41.740234375 248.913085938 147.693359375 226.021484375 179.024414062 209.143554688 c 0
 329.975585938 127.934570312 212.36328125 0.1572265625 212.36328125 0.1572265625 c 1
EndSplineSet
EndChar

StartChar: m
Encoding: 109 109 16
Width: 912
Flags: HW
HStem: 0.123047 20.9912G<17.4253 158.997 289.113 389.372 533.882 662> 461.127 20G<-67.75 25.0498>
VStem: 0.450195 24.416<285.984 371.099 381.498 427.14>
LayerCount: 2
Fore
SplineSet
662 0.1142578125 m 1
 559.374023438 0.1142578125 l 1
 508.390625 59.59375 627.274414062 118.328125 624.431640625 203.260742188 c 0
 624.431640625 268.309570312 581.684570312 280.424804688 536.39453125 294.577148438 c 0
 400.48828125 334.171875 406.143554688 427.641601562 411.7890625 447.439453125 c 1
 384.163085938 439 361.14453125 426.01171875 343.083984375 410.75390625 c 1
 350.028320312 401.51953125 356.04296875 392.323242188 361.435546875 383.749023438 c 0
 401.080078125 310.125976562 385.53125 232.25390625 368.536132812 136.020507812 c 0
 351.541992188 39.787109375 389.372070312 0.1142578125 389.372070312 0.1142578125 c 1
 314.584960938 0.1142578125 l 1
 263.640625 59.5556640625 363.676757812 118.2890625 360.834960938 203.221679688 c 0
 360.834960938 268.270507812 309.075195312 280.385742188 263.834960938 294.577148438 c 0
 127.860351562 334.240234375 133.543945312 427.641601562 139.19921875 447.439453125 c 1
 74.0732421875 427.641601562 34.439453125 382.3515625 25.9326171875 342.678710938 c 0
 25.49609375 339.768554688 25.1953125 336.859375 25.0498046875 333.997070312 c 0
 24.927734375 332.154296875 24.8662109375 330.294921875 24.8662109375 328.420898438 c 0
 24.8662109375 326.546875 24.927734375 324.831054688 25.0498046875 322.98828125 c 0
 28.9296875 259.821289062 99.2646484375 228.422851562 125.046875 218.111328125 c 0
 275.106445312 150.211914062 158.997070312 0.123046875 158.997070312 0.123046875 c 1
 0.4501953125 0.123046875 l 1
 34.400390625 5.7685546875 117.888671875 103.001953125 57.0791015625 186.974609375 c 0
 54.7509765625 190.223632812 52.5302734375 193.3671875 50.3955078125 196.431640625 c 0
 39.0390625 212.482421875 28.7744140625 229.309570312 19.65625 246.872070312 c 0
 3.3994140625 281.888671875 0.7802734375 309.41796875 0.4501953125 320.495117188 c 2
 0.4501953125 415.5546875 l 1
 -22.2763671875 437.379882812 -67.75 481.126953125 -67.75 481.126953125 c 1
 25.0498046875 481.126953125 l 1
 25.0498046875 381.498046875 l 1
 92.94921875 491.913085938 153.3515625 489.924804688 192.985351562 489.924804688 c 0
 258.295898438 489.924804688 300.782226562 460.184570312 330.076171875 426.788085938 c 1
 384.638671875 491.29296875 432.401367188 489.924804688 465.614257812 489.924804688 c 0
 559.025390625 489.924804688 605.76953125 429.038085938 634.07421875 383.709960938 c 0
 673.708007812 310.086914062 658.120117188 232.215820312 641.165039062 135.943359375 c 0
 624.208984375 39.669921875 662 0.1142578125 662 0.1142578125 c 1
EndSplineSet
EndChar

StartChar: n
Encoding: 110 110 17
Width: 602
Flags: HW
HStem: -0.924805 21G<-0.773438 153.611 287.229 412> 460.205 20G<-68.9844 23.8057>
VStem: -0.773438 24.5791<380.479 426.201>
LayerCount: 2
Fore
SplineSet
412 -0.9248046875 m 5
 321.392578125 -0.9248046875 l 5
 253.065429688 27.205078125 367.321289062 117.997070312 364.489257812 202.939453125 c 4
 361.657226562 287.8828125 307.860351562 279.395507812 262.551757812 293.547851562 c 4
 126.645507812 333.19140625 132.310546875 426.631835938 137.96484375 446.448242188 c 5
 72.8486328125 426.631835938 33.205078125 381.323242188 24.7080078125 341.688476562 c 4
 13.3876953125 265.233398438 95.517578125 228.421875 123.8125 217.1015625 c 4
 181.546875 190.959960938 199.889648438 152.684570312 200.59765625 115.446289062 c 4
 200.607421875 114.799804688 200.611328125 114.153320312 200.611328125 113.504882812 c 4
 200.611328125 105.915039062 199.9921875 98.6328125 198.793945312 91.3798828125 c 4
 198.677734375 90.642578125 198.532226562 89.876953125 198.396484375 89.1201171875 c 4
 193.352539062 62.9296875 177.638671875 23.392578125 129.583984375 -0.9248046875 c 5
 -0.7734375 -0.9248046875 l 5
 33.17578125 4.740234375 116.673828125 101.97265625 55.8544921875 185.955078125 c 4
 53.5361328125 189.185546875 51.2958984375 192.328125 49.142578125 195.413085938 c 4
 37.7958984375 211.466796875 27.5380859375 228.29296875 18.4228515625 245.852539062 c 4
 2.1748046875 280.870117188 -0.4638671875 308.3984375 -0.7734375 319.465820312 c 6
 -0.7734375 414.603515625 l 5
 -23.5107421875 436.458007812 -68.984375 480.205078125 -68.984375 480.205078125 c 5
 23.8056640625 480.205078125 l 5
 23.8056640625 380.478515625 l 5
 91.7060546875 490.903320312 152.126953125 488.924804688 191.771484375 488.924804688 c 4
 285.201171875 488.924804688 331.926757812 428.047851562 360.240234375 382.739257812 c 4
 399.884765625 309.125976562 384.306640625 231.25390625 367.321289062 134.981445312 c 4
 350.336914062 38.708984375 412 -0.9248046875 412 -0.9248046875 c 5
EndSplineSet
EndChar

StartChar: r
Encoding: 114 114 18
Width: 554
Flags: HW
HStem: 0.530273 21G<17.3304 162.991> 460.127 20G<-67.3268 37.5892>
VStem: 0.388991 37.248<269.91 412.138 415.987 431.684> 270.078 57.0361<359.714 423.182>
LayerCount: 2
Fore
SplineSet
270.07421875 357.205078125 m 0
 260.655273438 420.846679688 252.48828125 455.427734375 136.213867188 450.606445312 c 0
 112.264648438 448.734375 45.130859375 428.296875 37.6328125 374.053710938 c 1
 37.6328125 332.26953125 l 1
 42.62890625 248.500976562 98.587890625 225.657226562 129.783203125 208.84765625 c 0
 280.220703125 127.91015625 162.986328125 0.5302734375 162.986328125 0.5302734375 c 1
 0.384765625 0.5302734375 l 1
 34.267578125 6.1943359375 117.483398438 103.09765625 56.8583984375 186.818359375 c 0
 54.5400390625 190.01953125 52.2900390625 193.15234375 50.15625 196.237304688 c 0
 36.576171875 215.734375 26.69140625 232.4375 19.552734375 246.522460938 c 0
 3.333984375 281.442382812 0.724609375 308.8828125 0.384765625 319.912109375 c 2
 0.384765625 414.97265625 l 1
 -22.2744140625 436.749023438 -67.3310546875 480.126953125 -67.3310546875 480.126953125 c 1
 37.5849609375 480.126953125 l 1
 37.5849609375 415.987304688 l 1
 61.4951171875 449.908203125 98.830078125 475.399414062 139.5703125 482.5 c 0
 221.379882812 496.33203125 308.350585938 469.482421875 327.110351562 406.461914062 c 1
 340.845703125 343.08203125 275.370117188 321.266601562 270.07421875 357.205078125 c 0
EndSplineSet
EndChar

StartChar: z
Encoding: 122 122 19
Width: 647
Flags: HW
HStem: 0.90332 21G<-3.83301 34.8745> 455.922 20G<358.333 397>
LayerCount: 2
Fore
SplineSet
55.685546875 37.4619140625 m 1
 74.0029296875 50.9794921875 134.739257812 88.8583984375 221.158203125 68.1240234375 c 1
 221.293945312 68.1240234375 l 1
 227.055664062 66.74609375 232.768554688 65.650390625 238.356445312 64.85546875 c 0
 328.430664062 61.5185546875 368.91796875 93.8388671875 384.603515625 112.384765625 c 0
 387.779296875 116.05078125 390.7890625 120.033203125 392.955078125 124.509765625 c 1
 393.120117188 40.3427734375 l 1
 370.40234375 -2.6669921875 332.009765625 -12.4541015625 293.03515625 -8.544921875 c 0
 236.901367188 -2.8896484375 179.438476562 31.1474609375 165.431640625 35.396484375 c 0
 91.265625 59.8349609375 38.97265625 8.146484375 30.7763671875 0.9033203125 c 1
 -3.8330078125 0.9033203125 l 1
 -3.0380859375 1.9248046875 97.0771484375 130.635742188 136.438476562 181.060546875 c 2
 143.529296875 190.168945312 l 2
 186.706054688 245.98828125 320.8046875 417.46875 337.004882812 438.538085938 c 1
 318.732421875 424.994140625 257.905273438 387.150390625 171.533203125 407.875976562 c 1
 171.397460938 407.875976562 l 1
 165.635742188 409.25390625 159.921875 410.349609375 154.334960938 411.14453125 c 0
 71.1767578125 423.115234375 7.9423828125 374.450195312 0.4736328125 352.8671875 c 1
 -0.263671875 351.4609375 l 1
 -0.4287109375 435.657226562 l 1
 22.279296875 478.666992188 60.681640625 488.454101562 99.646484375 484.544921875 c 0
 155.790039062 478.889648438 213.252929688 444.852539062 227.25 440.603515625 c 0
 301.40234375 416.171875 354.248046875 468.668945312 362.418945312 475.921875 c 1
 397 475.921875 l 1
 396.185546875 474.875 295.668945312 345.44921875 256.223632812 294.900390625 c 2
 249.142578125 285.791992188 l 2
 205.967773438 229.975585938 71.9072265625 58.55859375 55.685546875 37.4619140625 c 1
EndSplineSet
EndChar

StartChar: o
Encoding: 111 111 20
Width: 744
Flags: HW
HStem: -8.34961 46.6953<150.369 264.938> 466.35 20G<178.352 314.947>
VStem: -0.709961 494.71<206.329 375.596>
LayerCount: 2
Fore
SplineSet
493.999023438 239 m 4
 494 238.884765625 494 238.76953125 494 238.654296875 c 4
 494 206.329101562 487.653320312 175.313476562 476.306640625 147.024414062 c 5
 451.203125 141.990234375 343.920898438 159.731445312 286.127929688 208.134765625 c 4
 208.994140625 272.78515625 194.075195312 346.427734375 152.646484375 363.44140625 c 4
 40.359375 404.09375 11.443359375 249.146484375 29.8349609375 177.608398438 c 6
 29.8349609375 177.608398438 29.8349609375 177.462890625 29.921875 177.2109375 c 4
 29.9765625 177.047851562 30.0234375 176.876953125 30.05859375 176.70703125 c 4
 30.1162109375 176.483398438 30.1748046875 176.260742188 30.22265625 176.037109375 c 4
 30.2744140625 175.905273438 30.314453125 175.763671875 30.33984375 175.620117188 c 4
 30.4462890625 175.309570312 30.533203125 174.98046875 30.62109375 174.650390625 c 4
 30.6376953125 174.553710938 30.6640625 174.458007812 30.6982421875 174.369140625 c 4
 35.712890625 156.627929688 63.6787109375 70.646484375 139.581054688 44.6123046875 c 4
 158.583007812 38.09375 180.553710938 35.3486328125 205.938476562 38.345703125 c 5
 255.311523438 46.2314453125 300.096679688 78.42578125 326.4609375 103.190429688 c 5
 337.203125 113.7265625 346.61328125 125.2578125 354.8046875 137.955078125 c 5
 404.633789062 109.146484375 460.641601562 116.780273438 461.62109375 117.071289062 c 5
 456.055664062 107.208007812 449.821289062 97.873046875 442.889648438 88.9990234375 c 4
 442.19140625 88.0966796875 441.522460938 87.2333984375 440.82421875 86.3603515625 c 4
 440.397460938 85.8076171875 439.951171875 85.2451171875 439.504882812 84.7119140625 c 4
 390.607421875 24.6298828125 315.568359375 -7.1767578125 250.248046875 -8.349609375 c 4
 249.044921875 -8.349609375 247.842773438 -8.349609375 246.639648438 -8.349609375 c 4
 110.053710938 -8.349609375 -0.7099609375 102.404296875 -0.7099609375 239 c 4
 -0.7099609375 375.595703125 110.053710938 486.349609375 246.649414062 486.349609375 c 4
 383.245117188 486.349609375 493.999023438 375.595703125 493.999023438 239 c 4
EndSplineSet
EndChar

StartChar: q
Encoding: 113 113 21
Width: 792
Flags: HW
HStem: 457.346 20G<450.364 541.961>
VStem: -0.462891 39.3721<273.84 343.126> 450.402 24.2793<-207.164 -3.58008 35.0166 238.59 399.752 410.066>
LayerCount: 2
Fore
SplineSet
474.642578125 410.06640625 m 1
 474.681640625 -207.1640625 l 1
 542 -271.920898438 l 1
 450.40234375 -271.920898438 l 1
 450.40234375 -3.580078125 l 1
 450.325195312 -3.580078125 450.21875 -3.580078125 450.150390625 -3.580078125 c 0
 449.782226562 -3.6474609375 449.383789062 -3.79296875 449.015625 -3.79296875 c 0
 321.34375 -15.4814453125 236.993164062 -9.041015625 134.3671875 33.337890625 c 0
 84.1015625 57.5498046875 -0.462890625 128.650390625 -0.462890625 247.291015625 c 0
 -0.462890625 269.901367188 -0.9775390625 297.750976562 11.109375 329.420898438 c 0
 15.4833984375 339.256835938 20.033203125 348.461914062 24.689453125 357.133789062 c 0
 52.935546875 409.513671875 86.76953125 441.591796875 120.71875 460.6328125 c 0
 202.994140625 506.688476562 286.47265625 476.47265625 295.6484375 472.903320312 c 0
 295.927734375 472.818359375 296.200195312 472.706054688 296.454101562 472.573242188 c 1
 300.275390625 470.97265625 304.174804688 469.294921875 308.142578125 467.442382812 c 0
 326.087890625 458.333984375 347.388671875 445.705078125 372.220703125 428.448242188 c 0
 376.15234375 425.693359375 380.155273438 422.841796875 384.229492188 419.892578125 c 0
 399.201171875 408.860351562 416.610351562 400.635742188 435.250976562 396.157226562 c 1
 443.370117188 403.586914062 449.491210938 418.544921875 450.364257812 446.140625 c 0
 450.470703125 450.438476562 450.509765625 455.026367188 450.364257812 459.944335938 c 2
 450.364257812 477.345703125 l 1
 541.9609375 477.345703125 l 1
 474.642578125 410.06640625 l 1
450.392578125 35.0166015625 m 1
 450.364257812 238.58984375 l 2
 450.286132812 238.58984375 450.1796875 238.58984375 450.111328125 238.58984375 c 0
 410.758789062 246.205078125 372.346679688 272.540039062 344.682617188 333.650390625 c 0
 330.3359375 369.579101562 283.591796875 473.8828125 186.495117188 459.5078125 c 1
 145.83203125 448.944335938 43.671875 404.237304688 38.9091796875 273.83984375 c 1
 168.889648438 297.973632812 239.69921875 175.43359375 246.412109375 117.728515625 c 0
 253.764648438 54.2705078125 286.385742188 15.8974609375 362.724609375 13.2783203125 c 0
 394.366210938 12.1826171875 423.233398438 22.0859375 450.140625 34.8994140625 c 2
 450.392578125 35.0166015625 l 1
EndSplineSet
EndChar

StartChar: t
Encoding: 116 116 22
Width: 505
Flags: HW
HStem: 0.22168 21G<17.3529 211.731> 555.45 24.376<37.4901 185.415>
VStem: 0.484248 37.0059<280.968 555.45 579.826 686.701>
LayerCount: 2
Fore
SplineSet
211.73046875 0.2216796875 m 1
 0.4833984375 0.2216796875 l 1
 34.220703125 5.8193359375 117.009765625 102.275390625 56.67578125 185.579101562 c 0
 54.38671875 188.780273438 52.171875 191.907226562 50.03125 194.958984375 c 0
 38.775390625 210.908203125 28.591796875 227.6171875 19.5341796875 245.049804688 c 0
 3.4326171875 279.794921875 0.8134765625 307.129882812 0.4833984375 318.100585938 c 2
 0.4833984375 686.701171875 l 1
 -67.154296875 751.788085938 l 1
 37.4892578125 751.788085938 l 1
 37.4892578125 579.826171875 l 1
 185.4140625 579.826171875 l 1
 185.4140625 555.450195312 l 1
 37.4892578125 555.450195312 l 1
 37.4892578125 330.313476562 l 1
 42.46484375 246.892578125 147.57421875 224.252929688 178.653320312 207.500976562 c 0
 328.36328125 126.952148438 211.73046875 0.2216796875 211.73046875 0.2216796875 c 1
EndSplineSet
EndChar

StartChar: u
Encoding: 117 117 23
Width: 745
Flags: HW
HStem: 430.902 30.2246<-40.7412 -5.14555> 450.595 20G<364.316 399.319>
VStem: 0.211836 87.8721<110.804 427.322>
LayerCount: 2
Fore
SplineSet
493.0703125 256.1953125 m 1x60
 494.146484375 247.084960938 495 237.134765625 495 227.463867188 c 2
 495 223.379882812 l 1
 493.145507812 117.841796875 427.274414062 30.7099609375 335.3671875 -6.548828125 c 0
 308.827148438 -16.40234375 279.549804688 -24.0673828125 242.994140625 -24.0673828125 c 2
 242.80078125 -24.0673828125 l 2
 239.58984375 -24.0673828125 236.283203125 -23.9619140625 233.110351562 -23.873046875 c 0
 216.538085938 -23.873046875 200.883789062 -20.98046875 186.986328125 -17.7138671875 c 0
 130.861328125 -4.8291015625 84.5380859375 25.9658203125 52.0107421875 63.8828125 c 0
 50.0166015625 67.0595703125 47.115234375 69.9169921875 44.8232421875 72.9716796875 c 0
 34.607421875 86.466796875 25.71875 100.974609375 18.2939453125 116.360351562 c 0
 5.5869140625 147.681640625 0.212890625 182.047851562 0.212890625 206.462890625 c 2
 0.212890625 399.017578125 l 2
 -0.3203125 430.057617188 -36.365234375 430.90234375 -40.3720703125 430.90234375 c 0
 -40.6240234375 430.90234375 -40.740234375 434.365234375 -40.740234375 434.365234375 c 1
 -40.740234375 461.126953125 l 1
 88.0849609375 461.126953125 l 1xa0
 88.0849609375 369.348632812 87.1611328125 277.551757812 88.0849609375 185.79296875 c 0
 88.3798828125 156.487304688 95.01171875 110.861328125 115.48828125 75.3681640625 c 0
 118.979492188 69.5478515625 199.76171875 -62.00390625 342.29296875 52.2529296875 c 0
 349.059570312 59.033203125 356.474609375 66.7998046875 361.004882812 75.396484375 c 0
 382.557617188 109.462890625 382.140625 142.879882812 374.584960938 169.89453125 c 0
 364.60546875 205.940429688 342.383789062 230.162109375 342.206054688 230.413085938 c 0
 274.311523438 306.342773438 332.970703125 422.563476562 364.060546875 470.119140625 c 0
 364.176757812 470.284179688 364.263671875 470.458984375 364.370117188 470.594726562 c 0
 434.270507812 431.635742188 484.1640625 340.310546875 493.0703125 256.311523438 c 1
 493.0703125 256.1953125 l 1x60
EndSplineSet
EndChar

StartChar: v
Encoding: 118 118 24
Width: 797
Flags: HW
HStem: 458.232 20G<0.230207 110.677>
VStem: 274.828 2.46484<417.007 430.866>
LayerCount: 2
Fore
SplineSet
275.225585938 416.772460938 m 4
 275.225585938 421.76953125 276.330078125 427.35546875 277.301757812 432.263671875 c 4
 277.295898438 432.325195312 277.29296875 432.387695312 277.29296875 432.450195312 c 4
 277.29296875 446.06640625 283.548828125 455.975585938 285.672851562 459.404296875 c 4
 292.887695312 472.653320312 305.946289062 485.407226562 329.584960938 487.1171875 c 4
 432.19140625 494.90625 560.8671875 385.897460938 545.788085938 202.315429688 c 4
 535.20703125 73.4931640625 476.547851562 18.267578125 395.874023438 -0.1142578125 c 4
 296.096679688 -20.8154296875 242.8984375 2.8759765625 199.7890625 31.5078125 c 4
 192.6015625 37.408203125 186.482421875 43.4951171875 179.961914062 50.015625 c 4
 148.10546875 85.64453125 131.1640625 135.018554688 122.712890625 180.053710938 c 4
 114.3125 222.9375 118.444335938 204.4296875 107.96875 319.831054688 c 5
 107.96875 320.228515625 l 5
 102.926757812 360.869140625 94.501953125 379.732421875 81.623046875 395.471679688 c 4
 81.623046875 395.520507812 81.5654296875 395.520507812 81.5654296875 395.520507812 c 5
 68.9716796875 413.245117188 57.52734375 423.056640625 40.5244140625 439.431640625 c 6
 0.23046875 478.232421875 l 5
 93.6416015625 478.232421875 l 4
 127.712890625 462.791015625 143.495117188 447.720703125 168.9140625 415.967773438 c 4
 178.979492188 403.561523438 186.908203125 387.31640625 191.6796875 369.98046875 c 4
 201.505859375 334.953125 204.095703125 281.583984375 183.163085938 202.014648438 c 4
 152.666015625 62.2568359375 243.662109375 25.853515625 289.135742188 17.8701171875 c 4
 379.345703125 2.0107421875 441.10546875 38.240234375 460.825195312 87.2734375 c 4
 473.750976562 115.770507812 468.869140625 150.99609375 448.807617188 180.063476562 c 4
 395.140625 257.66796875 280.178710938 288.365234375 274.828125 389.302734375 c 4
 274.823242188 389.354492188 274.8203125 389.40625 274.8203125 389.458984375 c 4
 274.8203125 389.51171875 274.823242188 389.561523438 274.828125 389.61328125 c 4
 274.655273438 393.130859375 274.567382812 396.671875 274.567382812 400.232421875 c 4
 274.567382812 405.91796875 274.788085938 411.19921875 275.225585938 416.772460938 c 4
EndSplineSet
EndChar

StartChar: w
Encoding: 119 119 25
Width: 1108
Flags: HW
HStem: 411.165 63.8262<44.5856 79.3593>
LayerCount: 2
Fore
SplineSet
857.4609375 201.325195312 m 5
 841.94140625 76.5634765625 789.298828125 17.4619140625 712.6015625 0.0400390625 c 5
 712.54296875 0.0400390625 l 6
 710.865234375 -0.3671875 709.206054688 -0.677734375 707.5859375 -1.0458984375 c 4
 623.884765625 -18.4091796875 567.111328125 -1.724609375 532.918945312 16.9189453125 c 4
 528.73828125 19.1982421875 524.916015625 21.5068359375 521.4140625 23.708984375 c 4
 520.221679688 24.484375 519.10546875 25.2216796875 518 25.958984375 c 4
 517.45703125 26.3369140625 516.913085938 26.7060546875 516.379882812 27.103515625 c 4
 515.293945312 27.8408203125 514.294921875 28.578125 513.3046875 29.2958984375 c 4
 512.8203125 29.693359375 512.334960938 30.033203125 511.821289062 30.4013671875 c 6
 511.568359375 30.576171875 l 6
 511.083984375 30.9736328125 510.598632812 31.3134765625 510.142578125 31.681640625 c 4
 509.6875 32.05078125 509.483398438 32.1669921875 509.172851562 32.4580078125 c 4
 508.862304688 32.7490234375 508.290039062 33.13671875 507.86328125 33.505859375 c 4
 507.436523438 33.8740234375 506.98046875 34.2236328125 506.524414062 34.5625 c 6
 505.788085938 35.18359375 l 6
 500.795898438 39.4990234375 496.203125 44.0478515625 491.838867188 48.99609375 c 6
 491.751953125 49.083984375 l 6
 490.55859375 50.421875 489.35546875 51.7900390625 488.19140625 53.1767578125 c 5
 464.330078125 24.9990234375 434.0078125 8.052734375 398.592773438 0.001953125 c 5
 398.53515625 0.001953125 l 6
 396.856445312 -0.4052734375 395.208007812 -0.7158203125 393.578125 -1.0849609375 c 4
 309.876953125 -18.447265625 253.112304688 -1.763671875 218.91015625 16.8798828125 c 4
 214.729492188 19.1591796875 210.916992188 21.4677734375 207.416015625 23.669921875 c 4
 206.212890625 24.4453125 205.107421875 25.1826171875 203.991210938 25.919921875 c 4
 203.458007812 26.298828125 202.915039062 26.6669921875 202.372070312 27.064453125 c 4
 201.294921875 27.8017578125 200.295898438 28.5390625 199.296875 29.2568359375 c 4
 198.811523438 29.654296875 198.327148438 29.994140625 197.8125 30.3623046875 c 6
 197.560546875 30.537109375 l 6
 197.075195312 30.9345703125 196.590820312 31.2744140625 196.134765625 31.6435546875 c 4
 195.678710938 32.01171875 195.484375 32.1279296875 195.1640625 32.4189453125 c 4
 194.844726562 32.7099609375 194.282226562 33.09765625 193.85546875 33.466796875 c 4
 193.427734375 33.8349609375 192.97265625 34.1845703125 192.516601562 34.5244140625 c 6
 191.76953125 35.14453125 l 6
 186.78515625 39.48828125 182.198242188 44.0625 177.83984375 49.03515625 c 6
 177.752929688 49.1220703125 l 6
 146.809570312 83.7421875 130.22265625 131.912109375 121.415039062 174.708007812 c 4
 121.26953125 175.387695312 121.124023438 176.095703125 120.98828125 176.784179688 c 4
 120.852539062 177.47265625 120.668945312 178.345703125 120.532226562 179.122070312 c 4
 112.1328125 221.99609375 116.254882812 203.48828125 105.779296875 318.801757812 c 4
 105.779296875 318.91796875 105.779296875 319.063476562 105.779296875 319.19921875 c 5
 101.626953125 352.7421875 92.3740234375 373.810546875 86.0205078125 384.830078125 c 4
 85.927734375 384.918945312 85.8525390625 385.0234375 85.796875 385.140625 c 4
 83.94921875 388.4375 81.8330078125 391.525390625 79.443359375 394.422851562 c 4
 79.443359375 394.481445312 79.3857421875 394.481445312 79.3857421875 394.481445312 c 6
 78.7939453125 395.334960938 78.1630859375 396.159179688 77.5908203125 396.984375 c 4
 73.833984375 402.157226562 70.189453125 406.884765625 66.6591796875 411.165039062 c 5
 66.6005859375 411.165039062 l 5
 58.8408203125 418.576171875 48.607421875 428.451171875 38.3642578125 438.325195312 c 4
 18.1787109375 457.725585938 0.1845703125 475.078125 0.1845703125 475.078125 c 5
 95.623046875 474.991210938 l 5
 96.8837890625 474.448242188 108.873046875 469.569335938 127.866210938 455.736328125 c 4
 127.916992188 455.6796875 127.974609375 455.630859375 128.040039062 455.590820312 c 4
 138.884765625 446.424804688 151.892578125 433.387695312 166.752929688 414.8515625 c 4
 167.267578125 414.23046875 167.78125 413.599609375 168.266601562 412.911132812 c 4
 169.828125 410.922851562 171.428710938 408.701171875 173.01953125 406.286132812 c 6
 173.165039062 406.053710938 l 6
 175.44140625 402.556640625 177.536132812 398.923828125 179.430664062 395.1796875 c 4
 183.560546875 386.908203125 186.985351562 378.009765625 189.48046875 368.931640625 c 4
 199.306640625 333.9140625 201.896484375 280.5546875 180.973632812 201.014648438 c 4
 150.49609375 61.3056640625 241.462890625 24.9208984375 286.926757812 16.8701171875 c 4
 377.13671875 1.0107421875 438.84765625 37.240234375 458.548828125 86.25390625 c 4
 459.795898438 88.9716796875 460.852539062 91.8681640625 461.65234375 94.7998046875 c 4
 462.108398438 96.33203125 462.477539062 97.89453125 462.796875 99.494140625 c 4
 469.004882812 125.287109375 464.165039062 153.475585938 446.540039062 178.986328125 c 4
 441.682617188 185.998046875 436.470703125 192.569335938 430.767578125 198.880859375 c 4
 373.625 262.939453125 281.629882812 295.259765625 272.900390625 385.072265625 c 4
 272.784179688 386.129882812 272.696289062 387.12890625 272.638671875 388.205078125 c 4
 272.631835938 388.256835938 272.627929688 388.30859375 272.627929688 388.361328125 c 4
 272.627929688 388.415039062 272.631835938 388.46484375 272.638671875 388.515625 c 4
 272.467773438 392.025390625 272.380859375 395.557617188 272.380859375 399.108398438 c 4
 272.380859375 404.802734375 272.600585938 410.092773438 273.036132812 415.67578125 c 4
 273.036132812 416.180664062 273.123046875 416.645507812 273.181640625 417.150390625 c 4
 273.549804688 420.85546875 274.03515625 424.697265625 274.685546875 428.596679688 c 4
 274.831054688 429.420898438 274.947265625 430.274414062 275.112304688 431.098632812 c 6
 275.112304688 431.157226562 l 6
 275.106445312 431.21875 275.103515625 431.280273438 275.103515625 431.34375 c 4
 275.103515625 431.40625 275.106445312 431.463867188 275.112304688 431.525390625 c 4
 277.478515625 444.572265625 280.805664062 452.739257812 282.435546875 456.270507812 c 4
 282.571289062 456.551757812 282.716796875 456.813476562 282.833007812 457.036132812 c 4
 283.056640625 457.463867188 283.23046875 457.783203125 283.34765625 458.006835938 c 4
 283.463867188 458.229492188 283.483398438 458.297851562 283.483398438 458.297851562 c 6
 290.350585938 470.907226562 302.756835938 483.604492188 324.969726562 485.826171875 c 6
 327.384765625 485.991210938 l 6
 347.754882812 487.5625 368.842773438 484.545898438 389.572265625 477.260742188 c 4
 428.20703125 463.768554688 465.50390625 435.55078125 493.740234375 394.6171875 c 4
 526.97265625 346.583007812 547.69140625 281.040039062 543.481445312 201.354492188 c 4
 537.05078125 149.624023438 524.265625 109.204101562 505.981445312 78.3291015625 c 5
 529.950195312 36.7646484375 573.600585938 21.7197265625 600.934570312 16.8701171875 c 4
 691.14453125 1.0107421875 752.856445312 37.240234375 772.556640625 86.25390625 c 4
 774.440429688 90.4052734375 775.895507812 94.9052734375 776.795898438 99.494140625 c 4
 783.00390625 125.287109375 778.1640625 153.475585938 760.5390625 178.986328125 c 4
 706.529296875 257.081054688 596.462890625 286.31640625 586.909179688 385.0234375 c 4
 586.791992188 386.081054688 586.71484375 387.080078125 586.65625 388.157226562 c 4
 586.649414062 388.208007812 586.645507812 388.259765625 586.645507812 388.313476562 c 4
 586.645507812 388.366210938 586.649414062 388.416015625 586.65625 388.467773438 c 4
 586.483398438 391.985351562 586.395507812 395.526367188 586.395507812 399.086914062 c 4
 586.395507812 404.772460938 586.616210938 410.053710938 587.0546875 415.626953125 c 4
 587.0546875 416.131835938 587.141601562 416.59765625 587.200195312 417.1015625 c 4
 587.568359375 420.806640625 588.053710938 424.6484375 588.703125 428.547851562 c 4
 588.848632812 429.372070312 588.96484375 430.225585938 589.129882812 431.05078125 c 6
 589.129882812 431.108398438 l 6
 589.125 431.169921875 589.122070312 431.232421875 589.122070312 431.294921875 c 4
 589.122070312 431.357421875 589.125 431.416015625 589.129882812 431.477539062 c 4
 591.497070312 444.5234375 594.82421875 452.69140625 596.443359375 456.221679688 c 4
 596.588867188 456.502929688 596.734375 456.764648438 596.841796875 456.98828125 c 6
 597.35546875 457.958007812 l 6
 597.396484375 458.059570312 597.4453125 458.157226562 597.500976562 458.249023438 c 4
 604.359375 470.859375 616.775390625 483.556640625 638.978515625 485.77734375 c 6
 641.403320312 485.942382812 l 6
 743.942382812 493.829101562 867.161132812 385.333984375 857.4609375 201.325195312 c 5
EndSplineSet
EndChar

StartChar: y
Encoding: 121 121 26
Width: 799
Flags: HW
HStem: 457.474 20G<93.9086 93.9237>
LayerCount: 2
Fore
SplineSet
538.900390625 295.701171875 m 1
 546.640625 264.331054688 555.536132812 217.760742188 541.965820312 159.38671875 c 0
 541.684570312 158.1640625 541.393554688 156.913085938 541.083007812 155.681640625 c 0
 511.197265625 36.322265625 436.4296875 -26.3291015625 373.874023438 -74.208984375 c 0
 373.83984375 -74.26171875 373.7890625 -74.302734375 373.728515625 -74.3251953125 c 0
 371.624023438 -75.8671875 369.48046875 -77.400390625 367.317382812 -78.9423828125 c 0
 358.599609375 -85.15625 350.225585938 -91.2998046875 342.194335938 -97.3720703125 c 2
 342.135742188 -97.4306640625 l 1
 150.706054688 -241.912109375 143.693359375 -345.896484375 150.076171875 -385.006835938 c 0
 150.077148438 -385.03125 150.078125 -385.053710938 150.078125 -385.078125 c 0
 150.078125 -385.102539062 150.077148438 -385.127929688 150.076171875 -385.15234375 c 0
 151.724609375 -395.201171875 154.266601562 -400.923828125 154.72265625 -401.89453125 c 0
 154.73828125 -401.943359375 154.7578125 -401.993164062 154.780273438 -402.040039062 c 0
 168.370117188 -440.897460938 194.889648438 -457.930664062 194.889648438 -457.930664062 c 1
 103.709960938 -457.930664062 l 1
 94.078125 -453.944335938 88.0439453125 -448.754882812 84.82421875 -442.48828125 c 0
 50.8642578125 -386.461914062 195.384765625 -201.696289062 199.4296875 -196.53515625 c 0
 199.4296875 -196.477539062 199.477539062 -196.477539062 199.477539062 -196.477539062 c 1
 199.477539062 -196.418945312 l 1
 232.244140625 -153.3515625 271.326171875 -115.9765625 315.083007812 -81.958984375 c 1
 314.9609375 -82.0244140625 314.84765625 -82.1025390625 314.743164062 -82.19140625 c 1
 412.470703125 2.857421875 l 1
 408.823242188 1.771484375 405.088867188 0.8017578125 401.305664062 -0.052734375 c 2
 401.248046875 -0.052734375 l 2
 399.569335938 -0.4501953125 397.911132812 -0.7607421875 396.291015625 -1.138671875 c 0
 312.580078125 -18.51171875 255.73828125 -1.8173828125 221.516601562 16.9423828125 c 0
 217.326171875 19.1728515625 213.50390625 21.4814453125 210.002929688 23.732421875 c 0
 208.809570312 24.5078125 207.694335938 25.2451171875 206.587890625 25.982421875 c 0
 206.044921875 26.3603515625 205.501953125 26.7294921875 204.958984375 27.126953125 c 0
 203.881835938 27.8642578125 202.853515625 28.611328125 201.883789062 29.3193359375 c 0
 201.369140625 29.716796875 200.884765625 30.056640625 200.399414062 30.4345703125 c 2
 200.147460938 30.599609375 l 2
 199.69140625 30.9970703125 199.177734375 31.3369140625 198.721679688 31.71484375 c 0
 198.411132812 31.9677734375 198.177734375 32.1416015625 197.750976562 32.4814453125 c 0
 197.32421875 32.8212890625 196.897460938 33.19921875 196.442382812 33.5390625 c 0
 195.986328125 33.8779296875 195.559570312 34.2470703125 195.103515625 34.5859375 c 2
 194.366210938 35.216796875 l 2
 189.369140625 39.5302734375 184.772460938 44.0791015625 180.408203125 49.029296875 c 2
 180.3203125 49.1171875 l 2
 149.358398438 83.755859375 132.799804688 131.955078125 123.944335938 174.770507812 c 0
 123.798828125 175.459960938 123.663085938 176.060546875 123.517578125 176.856445312 c 0
 123.372070312 177.651367188 123.20703125 178.41796875 123.061523438 179.184570312 c 0
 114.661132812 222.087890625 118.784179688 203.5703125 108.307617188 319 c 0
 108.307617188 319.116210938 108.307617188 319.26171875 108.307617188 319.397460938 c 1
 104.146484375 352.959960938 94.892578125 374.038085938 88.5390625 385.06640625 c 0
 88.443359375 385.155273438 88.365234375 385.259765625 88.306640625 385.376953125 c 0
 86.4609375 388.67578125 84.3447265625 391.764648438 81.953125 394.66015625 c 0
 81.89453125 394.71875 81.89453125 394.71875 81.89453125 394.71875 c 2
 81.302734375 395.572265625 80.6728515625 396.40625 80.1005859375 397.23046875 c 0
 76.34375 402.391601562 72.69921875 407.118164062 69.16796875 411.412109375 c 1
 69.1103515625 411.469726562 l 2
 61.349609375 418.880859375 51.0869140625 428.765625 40.8251953125 438.668945312 c 2
 0.521484375 477.46875 l 1
 93.8740234375 477.46875 l 2
 93.888671875 477.471679688 93.90234375 477.473632812 93.91796875 477.473632812 c 0
 93.9326171875 477.473632812 93.947265625 477.471679688 93.9609375 477.46875 c 0
 106.8671875 471.620117188 119.055664062 464.451171875 130.3359375 456.12890625 c 0
 130.387695312 456.072265625 130.4453125 456.0234375 130.510742188 455.983398438 c 0
 141.35546875 446.817382812 154.3828125 433.770507812 169.252929688 415.1953125 c 0
 169.786132812 414.53515625 170.271484375 413.915039062 170.755859375 413.254882812 c 0
 172.328125 411.266601562 173.918945312 409.044921875 175.518554688 406.620117188 c 2
 175.655273438 406.387695312 l 2
 177.940429688 402.896484375 180.03515625 399.263671875 181.920898438 395.513671875 c 0
 186.099609375 387.178710938 189.564453125 378.20703125 192.086914062 369.051757812 c 0
 201.913085938 334.015625 204.502929688 280.626953125 183.5703125 201.038085938 c 0
 153.063476562 61.251953125 244.087890625 24.84765625 289.620117188 16.796875 c 0
 379.830078125 0.927734375 441.58984375 37.1572265625 461.310546875 86.2197265625 c 0
 463.189453125 90.3720703125 464.643554688 94.8720703125 465.548828125 99.4599609375 c 0
 471.756835938 125.271484375 466.916992188 153.469726562 449.282226562 179 c 0
 395.243164062 257.114257812 285.119140625 286.388671875 275.516601562 385.154296875 c 0
 275.399414062 386.2109375 275.3125 387.2109375 275.254882812 388.287109375 c 0
 275.247070312 388.33984375 275.243164062 388.391601562 275.243164062 388.446289062 c 0
 275.243164062 388.500976562 275.247070312 388.5546875 275.254882812 388.607421875 c 0
 275.0859375 392.092773438 274.998046875 395.24609375 274.998046875 398.772460938 c 0
 274.998046875 404.4921875 275.221679688 410.16015625 275.662109375 415.767578125 c 0
 275.690429688 416.28125 275.739257812 416.766601562 275.797851562 417.250976562 c 0
 276.166015625 420.947265625 276.651367188 424.827148438 277.310546875 428.70703125 c 0
 277.456054688 429.53125 277.563476562 430.384765625 277.737304688 431.209960938 c 2
 277.737304688 431.267578125 l 2
 277.732421875 431.329101562 277.729492188 431.387695312 277.729492188 431.450195312 c 0
 277.729492188 431.512695312 277.732421875 431.575195312 277.737304688 431.63671875 c 0
 280.104492188 444.682617188 283.431640625 452.860351562 285.061523438 456.390625 c 0
 285.197265625 456.681640625 285.342773438 456.934570312 285.458984375 457.166992188 c 0
 285.681640625 457.623046875 285.856445312 457.93359375 285.97265625 458.13671875 c 0
 286.009765625 458.235351562 286.055664062 458.330078125 286.108398438 458.41796875 c 0
 292.9765625 471.067382812 305.40234375 483.745117188 327.615234375 485.965820312 c 2
 330.040039062 486.130859375 l 2
 413.634765625 492.572265625 510.92578125 421.704101562 538.900390625 295.701171875 c 1
293.1796875 -315.21484375 m 0
 294.712890625 -311.276367188 296.313476562 -307.376953125 297.932617188 -303.575195312 c 1
 296.419921875 -307.649414062 294.7421875 -311.712890625 292.9765625 -315.767578125 c 1
 292.986328125 -315.5546875 293.073242188 -315.379882812 293.1796875 -315.21484375 c 0
EndSplineSet
EndChar
